<svg aria-hidden="true" style="position: absolute; width: 0; height: 0; overflow: hidden;" version="1.1" xmlns="http://www.w3.org/2000/svg" xmlns:xlink="http://www.w3.org/1999/xlink">
<defs>

<symbol id="icon-antenna" viewBox="0 0 30 32">
<path d="M28.437 19.831l-7.577-7.633 0.841-4.142c0.217 0.085 0.448 0.129 0.681 0.131h0.006c1.070 0.013 1.948-0.844 1.96-1.914s-0.844-1.948-1.914-1.96c-1.070-0.013-1.948 0.844-1.96 1.914-0.003 0.229 0.035 0.457 0.112 0.672l-4.451 0.543-7.261-7.299c-0.089-0.091-0.211-0.143-0.338-0.144-0.126 0.001-0.246 0.051-0.335 0.139l-1.357 1.35c-0.187 0.187-0.187 0.49 0 0.677l0.73 0.741c-2.83 5.203-1.911 11.647 2.261 15.851 0.038 0.037 0.083 0.066 0.131 0.088-0.030 0.162-0.046 0.326-0.047 0.491v5.552h-5.744c-1.321 0.002-2.392 1.072-2.393 2.393v0.957c0 0.264 0.214 0.479 0.479 0.479h22.017c0.264 0 0.479-0.214 0.479-0.479v-0.957c-0.002-1.321-1.072-2.392-2.393-2.393h-5.744v-2.461c0.9 0.189 1.817 0.285 2.736 0.287 2.206-0.002 4.377-0.552 6.318-1.601l0.734 0.739c0.089 0.091 0.211 0.143 0.338 0.144 0.126-0.001 0.246-0.051 0.335-0.139l1.357-1.35c0.187-0.187 0.187-0.49 0-0.677zM21.713 5.594c0.375-0.373 0.981-0.371 1.354 0.004s0.371 0.981-0.004 1.354c-0.179 0.178-0.422 0.279-0.675 0.279h-0.003c-0.529-0.003-0.955-0.434-0.952-0.962 0.001-0.253 0.103-0.495 0.282-0.674h-0.002zM20.586 8.739l-0.537 2.643-1.055-1.061 1.592-1.582zM20.042 7.93l-1.723 1.713-1.333-1.34 3.056-0.373zM22.363 25.846c0.793 0 1.436 0.643 1.436 1.436v0.479h-21.060v-0.479c0-0.793 0.643-1.436 1.436-1.436h18.188zM15.662 23.932v0.957h-4.786v-0.957h4.786zM10.875 22.974v-3.638c0-1.161 1.074-2.106 2.393-2.106s2.393 0.945 2.393 2.106v3.638h-4.786zM16.619 21.452v-2.116c0-1.689-1.503-3.063-3.35-3.063-1.195-0.018-2.312 0.59-2.945 1.603-3.642-3.835-4.462-9.553-2.045-14.258l16.694 16.79c-2.578 1.311-5.533 1.681-8.354 1.044zM26.75 20.839l-18.897-19.008 0.677-0.675 7.121 7.161c0.003 0 0.005 0.006 0.009 0.009l11.77 11.838-0.679 0.675z"></path>
<path d="M13.273 18.188h-0.004c-0.793-0.001-1.437 0.641-1.438 1.434s0.641 1.437 1.434 1.438h0.004c0.793 0.001 1.437-0.641 1.438-1.434s-0.641-1.437-1.434-1.438zM13.608 19.963c-0.090 0.090-0.212 0.14-0.339 0.139-0.264-0.001-0.477-0.217-0.476-0.481 0.001-0.127 0.051-0.248 0.141-0.337s0.209-0.139 0.335-0.139c0.264 0.001 0.477 0.217 0.476 0.481-0.001 0.127-0.051 0.248-0.141 0.337h0.004z"></path>
</symbol>

<symbol id="icon-astronaut" viewBox="0 0 32 32">
<path d="M30.336 4.881c-0.056-0.173-0.206-0.299-0.386-0.325l-1.714-0.249-0.767-1.554c-0.161-0.327-0.697-0.327-0.858 0l-0.767 1.554-1.715 0.249c-0.18 0.026-0.33 0.152-0.387 0.325-0.056 0.173-0.010 0.364 0.121 0.491l1.241 1.21-0.293 1.708c-0.031 0.18 0.043 0.361 0.19 0.468 0.149 0.108 0.343 0.122 0.504 0.036l1.534-0.807 1.534 0.807c0.070 0.037 0.147 0.055 0.223 0.055 0.099 0 0.198-0.031 0.281-0.091 0.147-0.107 0.221-0.289 0.19-0.468l-0.293-1.708 1.241-1.21c0.13-0.127 0.177-0.317 0.121-0.491zM28.125 6.071c-0.112 0.11-0.164 0.269-0.137 0.424l0.171 1-0.898-0.472c-0.070-0.037-0.146-0.055-0.223-0.055s-0.153 0.018-0.223 0.055l-0.898 0.472 0.171-1c0.027-0.155-0.025-0.313-0.137-0.424l-0.727-0.708 1.004-0.146c0.156-0.022 0.291-0.121 0.36-0.262l0.449-0.909 0.449 0.909c0.070 0.141 0.204 0.239 0.36 0.262l1.004 0.146-0.726 0.708z"></path>
<path d="M25.094 19.238h-0.957v0.957h0.957v-0.957z"></path>
<path d="M25.094 21.152h-0.957v0.957h0.957v-0.957z"></path>
<path d="M26.051 20.195h-0.957v0.957h0.957v-0.957z"></path>
<path d="M24.137 20.195h-0.957v0.957h0.957v-0.957z"></path>
<path d="M21.744 24.503h-0.957v0.957h0.957v-0.957z"></path>
<path d="M21.744 26.417h-0.957v0.957h0.957v-0.957z"></path>
<path d="M22.701 25.46h-0.957v0.957h0.957v-0.957z"></path>
<path d="M20.786 25.46h-0.957v0.957h0.957v-0.957z"></path>
<path d="M16 22.588h-0.957v0.957h0.957v-0.957z"></path>
<path d="M16 24.503h-0.957v0.957h0.957v-0.957z"></path>
<path d="M16.957 23.546h-0.957v0.957h0.957v-0.957z"></path>
<path d="M15.043 23.546h-0.957v0.957h0.957v-0.957z"></path>
<path d="M6.906 6.315h-0.957v0.957h0.957v-0.957z"></path>
<path d="M6.906 8.229h-0.957v0.957h0.957v-0.957z"></path>
<path d="M7.863 7.272h-0.957v0.957h0.957v-0.957z"></path>
<path d="M5.949 7.272h-0.957v0.957h0.957v-0.957z"></path>
<path d="M23.821 13.528c-0.258-0.348-0.637-0.572-1.066-0.632-0.432-0.061-0.858 0.052-1.202 0.316l-1.124 0.862-1.703 1.272-1.219-0.485c2.173-0.975 3.692-3.149 3.692-5.672 0-3.431-2.802-6.222-6.247-6.222s-6.247 2.791-6.247 6.222c0 1.244 0.372 2.4 1.005 3.373l-2.48-0.022c-0.001 0-0.003 0-0.004 0-0.008 0-0.014 0.004-0.021 0.004-0.047 0.002-0.094 0.012-0.139 0.028-0.011 0.004-0.023 0.007-0.034 0.012-0.006 0.002-0.011 0.003-0.017 0.006l-2.901 1.433c-0.001 0-0.001 0-0.001 0l-1.699 0.817c-0.019 0.008-0.038 0.019-0.056 0.032-0.677 0.451-0.908 1.336-0.537 2.060 0.198 0.385 0.534 0.668 0.948 0.798 0.159 0.050 0.322 0.074 0.484 0.074 0.26 0 0.517-0.064 0.753-0.189l1.245-0.662 2.032-1.049 1.218-0.007-4.884 4.86c-0 0-0.001 0-0.001 0.001l-1.201 1.197c-0.284 0.282-0.44 0.657-0.44 1.057s0.156 0.775 0.44 1.058c0.292 0.29 0.675 0.436 1.058 0.436s0.767-0.146 1.059-0.436l1.179-1.175 1.562-1.166 0.808 0.805-1.581 1.574c-0 0-0.001 0-0.001 0.001l-1.201 1.197c-0.284 0.282-0.44 0.657-0.44 1.057s0.156 0.775 0.44 1.058c0.292 0.29 0.675 0.436 1.059 0.436s0.767-0.146 1.059-0.436l3.124-3.111c0.001-0 0.001-0.001 0.001-0.001l0.906-0.897-0.003-0.003c0.006-0.006 0.014-0.008 0.020-0.014l4.636-5.078 3.115 0.443c0.022 0.003 0.045 0.005 0.067 0.005 0.058 0 0.114-0.014 0.168-0.034 0.016-0.006 0.030-0.013 0.044-0.021 0.017-0.009 0.035-0.013 0.052-0.024l2.884-1.915c0.011-0.007 0.016-0.019 0.026-0.026 0.012-0.009 0.026-0.013 0.036-0.023l1.141-1.069c0.594-0.556 0.676-1.468 0.19-2.12zM3.553 16.768c-0.156 0.083-0.332 0.1-0.501 0.046-0.168-0.052-0.303-0.167-0.383-0.321-0.145-0.281-0.061-0.624 0.192-0.809l1.179-0.567 0.403 1.178-0.89 0.473zM6.691 15.128l-1.389 0.718-0.394-1.152 1.819-0.898-0.036 1.332zM20.242 9.186c0 0.824-0.197 1.602-0.538 2.297l-3.753-1.704c-0.039-0.514-0.306-0.965-0.707-1.245l1.314-4.362c2.134 0.679 3.684 2.669 3.684 5.015zM9.662 9.186c0-2.903 2.373-5.265 5.29-5.265 0.227 0 0.449 0.019 0.669 0.047l-1.285 4.266c-0.017-0.001-0.034-0.005-0.051-0.005-0.927 0-1.681 0.751-1.681 1.675s0.754 1.675 1.681 1.675c0.623 0 1.162-0.344 1.452-0.848l3.466 1.575c-0.964 1.298-2.508 2.145-4.251 2.145-2.917 0-5.29-2.362-5.29-5.265zM15.008 9.904c0 0.396-0.325 0.718-0.723 0.718s-0.723-0.322-0.723-0.718c0-0.396 0.325-0.718 0.723-0.718s0.723 0.322 0.723 0.718zM3.853 23.388c-0.212 0.21-0.555 0.21-0.767 0-0.102-0.102-0.158-0.236-0.158-0.38s0.056-0.277 0.158-0.378l0.863-0.86 0.764 0.761-0.861 0.857zM6.737 26.738c-0.212 0.21-0.556 0.211-0.767 0.001-0.102-0.102-0.158-0.236-0.158-0.38s0.056-0.277 0.158-0.378l0.864-0.861 0.764 0.761-0.861 0.857zM9.862 23.625c-0.001 0-0.001 0-0.001 0.001l-1.584 1.58-0.764-0.761 1.582-1.575c0 0 0 0 0-0s0.001-0 0.001-0.001c0.036-0.036 0.058-0.079 0.080-0.122 0.006-0.012 0.018-0.023 0.023-0.036 0.015-0.037 0.017-0.077 0.023-0.115 0.003-0.022 0.012-0.043 0.012-0.065 0-0.032-0.011-0.063-0.018-0.095-0.006-0.029-0.006-0.058-0.017-0.086-0.018-0.045-0.049-0.085-0.082-0.123-0.009-0.011-0.012-0.024-0.022-0.034 0 0 0 0-0.001 0s-0.001-0.001-0.001-0.002l-1.442-1.436c-0.015-0.015-0.035-0.022-0.052-0.034-0.025-0.020-0.050-0.038-0.078-0.052-0.027-0.013-0.055-0.022-0.084-0.029-0.031-0.009-0.060-0.015-0.092-0.018-0.029-0.002-0.056 0.001-0.086 0.004-0.032 0.004-0.062 0.008-0.093 0.018s-0.057 0.024-0.085 0.040c-0.018 0.010-0.038 0.013-0.055 0.026l-1.591 1.188-0.808-0.805 2.153-2.141 3.913 3.849-0.832 0.825zM15.981 17.328c-0.014-0.002-0.027 0.003-0.041 0.002-0.035-0.002-0.068 0-0.103 0.006-0.027 0.005-0.053 0.010-0.079 0.019-0.031 0.011-0.058 0.025-0.087 0.042-0.027 0.016-0.051 0.033-0.075 0.055-0.012 0.010-0.025 0.015-0.036 0.026l-4.216 4.618-3.884-3.82 2.543-2.529c0.187-0.187 0.188-0.49 0.001-0.677-0.094-0.094-0.218-0.141-0.342-0.14v-0l-1.991 0.012 0.025-1.443 2.786 0.024c1.135 1.161 2.719 1.885 4.47 1.885 0.392 0 0.775-0.041 1.148-0.11 0.036 0.029 0.071 0.058 0.116 0.076l2.163 0.862 0.137 0.681 0.16 0.794-2.695-0.383zM19.608 17.488l-0.281-1.398 1.298-0.969 0.85 1.128-1.867 1.24zM22.977 14.947l-0.752 0.705-0.836-1.11 0.746-0.572c0.139-0.107 0.315-0.151 0.487-0.128 0.173 0.024 0.326 0.115 0.431 0.255 0.194 0.262 0.161 0.627-0.077 0.85z"></path>
<path d="M13.848 17.463l-1.923-1.915c-0.186-0.186-0.489-0.186-0.675 0l-1.923 1.915c-0.090 0.090-0.141 0.212-0.141 0.339s0.050 0.249 0.141 0.339l1.923 1.915c0.093 0.093 0.216 0.139 0.338 0.139s0.245-0.046 0.337-0.139l1.923-1.915c0.090-0.090 0.141-0.212 0.141-0.339s-0.051-0.249-0.141-0.339zM11.587 19.041l-1.244-1.239 1.244-1.239 1.245 1.239-1.245 1.239z"></path>
<path d="M17.045 5.371l-0.231 0.93c0.064 0.016 1.559 0.405 1.559 1.928h0.957c-0-1.81-1.495-2.661-2.286-2.858z"></path>
<path d="M19.33 9.186h-0.957v0.957h0.957v-0.957z"></path>
</symbol>

<symbol id="icon-clock" viewBox="0 0 31 32">
<path d="M29.317 13.732c-0.002-7.585-6.152-13.733-13.738-13.732s-13.733 6.152-13.732 13.738c0.001 5.975 3.865 11.264 9.557 13.081 0.054 0.017 0.111 0.026 0.168 0.026 0.108-0 0.214-0.029 0.307-0.084 0.121-0.072 0.212-0.186 0.254-0.32l3.469-10.994c0.948-0.005 1.713-0.778 1.708-1.726s-0.777-1.713-1.726-1.708c-0.255 0.001-0.507 0.060-0.736 0.172l-4.582-4.583c-0.227-0.22-0.59-0.213-0.809 0.014-0.214 0.222-0.214 0.573 0 0.795l4.58 4.585c-0.351 0.717-0.151 1.583 0.481 2.072l-3.305 10.476c-6.531-2.406-9.876-9.651-7.47-16.182s9.651-9.876 16.182-7.47c6.531 2.406 9.876 9.651 7.47 16.182-1.175 3.191-3.591 5.772-6.697 7.156l-0.357-1.682c-0.065-0.309-0.369-0.507-0.678-0.441-0.097 0.021-0.188 0.067-0.262 0.133l-3.443 3.074c-0.236 0.21-0.257 0.572-0.047 0.808 0.068 0.077 0.156 0.134 0.254 0.165l4.396 1.403c0.301 0.097 0.623-0.069 0.72-0.37 0.031-0.095 0.036-0.196 0.015-0.294l-0.351-1.65c5.083-2.143 8.384-7.128 8.372-12.644zM15.583 13.16c0.316 0 0.572 0.256 0.572 0.572s-0.256 0.572-0.572 0.572c-0.316 0-0.572-0.256-0.572-0.572s0.256-0.572 0.572-0.572zM17.468 26.499l1.96-1.748 0.541 2.549-2.501-0.801z"></path>
<path d="M15.010 2.858v1.145c0 0.316 0.256 0.572 0.572 0.572s0.572-0.256 0.572-0.572v-1.145c0-0.316-0.256-0.572-0.572-0.572s-0.572 0.256-0.572 0.572z"></path>
<path d="M4.709 13.16c-0.316 0-0.572 0.256-0.572 0.572s0.256 0.572 0.572 0.572h1.145c0.316 0 0.572-0.256 0.572-0.572s-0.256-0.572-0.572-0.572h-1.145z"></path>
<path d="M26.456 14.304c0.316 0 0.572-0.256 0.572-0.572s-0.256-0.572-0.572-0.572h-1.145c-0.316 0-0.572 0.256-0.572 0.572s0.256 0.572 0.572 0.572h1.145z"></path>
</symbol>

<symbol id="icon-diagram" viewBox="0 0 32 32">
<path d="M15.036 15.071h0.957v4.305h-0.957v-4.305z"></path>
<path d="M18.863 16.984h0.957v2.392h-0.957v-2.392z"></path>
<path d="M11.209 18.419h0.957v0.957h-0.957v-0.957z"></path>
<path d="M8.338 17.941h0.957v1.435h-0.957v-1.435z"></path>
<path d="M3.076 27.030h22.962c0.793 0 1.435-0.643 1.435-1.435v-1.914c0-0.793-0.643-1.435-1.435-1.435h-0.478v-11.93l2.717-2.574c0.631 0.311 1.394 0.122 1.807-0.448s0.355-1.354-0.137-1.856-1.274-0.578-1.853-0.178c-0.578 0.4-0.784 1.159-0.487 1.797l-2.047 1.941v-1.104c0-0.793-0.643-1.435-1.435-1.435h-19.135c-0.793 0-1.435 0.643-1.435 1.435v14.351h-0.478c-0.793 0-1.435 0.643-1.435 1.435v1.914c0 0.793 0.643 1.435 1.435 1.435zM28.909 5.982c0.264 0 0.478 0.214 0.478 0.478s-0.214 0.478-0.478 0.478c-0.264 0-0.478-0.214-0.478-0.478s0.214-0.478 0.478-0.478zM4.511 7.895c0-0.264 0.214-0.478 0.478-0.478h19.135c0.264 0 0.478 0.214 0.478 0.478v2.009l-0.957 0.909v-1.961c0-0.264-0.214-0.478-0.478-0.478h-17.222c-0.264 0-0.478 0.214-0.478 0.478v11.96c0 0.264 0.214 0.478 0.478 0.478h17.222c0.264 0 0.478-0.214 0.478-0.478v-8.682l0.957-0.907v11.024h-20.092v-14.351zM8.817 14.114c-0.647-0.002-1.216 0.429-1.388 1.053s0.094 1.286 0.651 1.616c0.556 0.33 1.265 0.247 1.73-0.203l1.663 0.834c0.193 0.097 0.427 0.051 0.571-0.11l3.535-3.977 3.475 2.604c0.186 0.14 0.447 0.125 0.616-0.035l3.020-2.861v7.297h-16.265v-11.003h16.265v2.388l-3.385 3.205-3.504-2.627c-0.199-0.149-0.479-0.121-0.644 0.065l-3.583 4.032-1.34-0.67c0.010-0.057 0.016-0.115 0.018-0.174 0-0.793-0.643-1.435-1.435-1.435zM9.295 15.549c0 0.264-0.214 0.478-0.478 0.478s-0.478-0.214-0.478-0.478c0-0.264 0.214-0.478 0.478-0.478s0.478 0.214 0.478 0.478zM12.165 23.203h4.784v0.478c0 0.264-0.214 0.478-0.478 0.478h-3.827c-0.264 0-0.478-0.214-0.478-0.478v-0.478zM2.598 23.682c0-0.264 0.214-0.478 0.478-0.478h8.132v0.478c0 0.793 0.643 1.435 1.435 1.435h3.827c0.793 0 1.435-0.643 1.435-1.435v-0.478h8.133c0.264 0 0.478 0.214 0.478 0.478v1.914c0 0.264-0.214 0.478-0.478 0.478h-22.962c-0.264 0-0.478-0.214-0.478-0.478v-1.914z"></path>
</symbol>

<symbol id="icon-ector" viewBox="0 0 32 32">
<path d="M20.667 0h-9.333c-1.103 0-2 0.897-2 2v17.333c0 1.103 0.897 2 2 2h9.333c1.103 0 2-0.897 2-2v-17.333c0-1.103-0.897-2-2-2zM11.333 1.333h9.333c0.368 0 0.667 0.299 0.667 0.667v14h-10.667v-14c0-0.368 0.299-0.667 0.667-0.667zM20.667 20h-9.333c-0.368 0-0.667-0.299-0.667-0.667v-2h10.667v2c0 0.368-0.299 0.667-0.667 0.667z"></path>
</symbol>

<symbol id="icon-envelope" viewBox="0 0 32 32">
<path d="M24.667 2.667h-17.333c-1.103 0-2 0.897-2 2v12c0 1.103 0.897 2 2 2h17.333c1.103 0 2-0.897 2-2v-12c0-1.103-0.897-2-2-2zM24.667 4c0.091 0 0.177 0.019 0.255 0.052l-8.922 7.733-8.922-7.733c0.079-0.033 0.165-0.052 0.256-0.052h17.333zM24.667 17.333h-17.333c-0.368 0-0.667-0.299-0.667-0.667v-11.206l8.897 7.71c0.126 0.109 0.281 0.163 0.437 0.163s0.311-0.054 0.437-0.163l8.897-7.71v11.206c0 0.368-0.299 0.667-0.667 0.667z"></path>
</symbol>

<symbol id="icon-facebook" viewBox="0 0 32 32">
<path d="M21.329 5.313h2.921v-5.088c-0.504-0.069-2.237-0.225-4.256-0.225-4.212 0-7.097 2.649-7.097 7.519v4.481h-4.648v5.688h4.648v14.312h5.699v-14.311h4.46l0.708-5.688h-5.169v-3.919c0.001-1.644 0.444-2.769 2.735-2.769z"></path>
</symbol>

<symbol id="icon-instagram" viewBox="0 0 32 32">
<path d="M31.969 9.408c-0.075-1.7-0.35-2.869-0.744-3.882-0.406-1.075-1.032-2.038-1.851-2.838-0.8-0.813-1.769-1.444-2.832-1.844-1.019-0.394-2.182-0.669-3.882-0.744-1.713-0.081-2.257-0.1-6.601-0.1s-4.888 0.019-6.595 0.094c-1.7 0.075-2.869 0.35-3.882 0.744-1.075 0.406-2.038 1.031-2.838 1.85-0.813 0.8-1.444 1.769-1.844 2.832-0.394 1.019-0.669 2.182-0.744 3.882-0.081 1.713-0.1 2.257-0.1 6.601s0.019 4.888 0.094 6.595c0.075 1.7 0.35 2.869 0.744 3.882 0.406 1.075 1.038 2.038 1.85 2.838 0.8 0.813 1.769 1.444 2.832 1.844 1.019 0.394 2.182 0.669 3.882 0.744 1.706 0.075 2.25 0.094 6.595 0.094s4.888-0.019 6.595-0.094c1.7-0.075 2.869-0.35 3.882-0.744 2.151-0.832 3.851-2.532 4.682-4.682 0.394-1.019 0.669-2.182 0.744-3.882 0.075-1.707 0.094-2.251 0.094-6.595s-0.006-4.888-0.081-6.595zM29.087 22.473c-0.069 1.563-0.331 2.407-0.55 2.969-0.538 1.394-1.644 2.5-3.038 3.038-0.563 0.219-1.413 0.481-2.969 0.55-1.688 0.075-2.194 0.094-6.464 0.094s-4.782-0.019-6.464-0.094c-1.563-0.069-2.407-0.331-2.969-0.55-0.694-0.256-1.325-0.663-1.838-1.194-0.531-0.519-0.938-1.144-1.194-1.838-0.219-0.563-0.481-1.413-0.55-2.969-0.075-1.688-0.094-2.194-0.094-6.464s0.019-4.782 0.094-6.464c0.069-1.563 0.331-2.407 0.55-2.969 0.256-0.694 0.663-1.325 1.2-1.838 0.519-0.531 1.144-0.938 1.838-1.194 0.563-0.219 1.413-0.481 2.969-0.55 1.688-0.075 2.194-0.094 6.464-0.094 4.276 0 4.782 0.019 6.464 0.094 1.563 0.069 2.407 0.331 2.969 0.55 0.694 0.256 1.325 0.662 1.838 1.194 0.531 0.519 0.938 1.144 1.194 1.838 0.219 0.563 0.481 1.413 0.55 2.969 0.075 1.688 0.094 2.194 0.094 6.464s-0.019 4.77-0.094 6.458z"></path>
<path d="M16.059 7.783c-4.538 0-8.22 3.682-8.22 8.22s3.682 8.22 8.22 8.22c4.538 0 8.22-3.682 8.22-8.22s-3.682-8.22-8.22-8.22zM16.059 21.335c-2.944 0-5.332-2.388-5.332-5.332s2.388-5.332 5.332-5.332c2.944 0 5.332 2.388 5.332 5.332s-2.388 5.332-5.332 5.332z"></path>
<path d="M26.524 7.458c0 1.060-0.859 1.919-1.919 1.919s-1.919-0.859-1.919-1.919c0-1.060 0.859-1.919 1.919-1.919s1.919 0.859 1.919 1.919z"></path>
</symbol>

<symbol id="icon-linkedin" viewBox="0 0 32 32">
<path d="M31.992 32v-0.001h0.008v-11.736c0-5.741-1.236-10.164-7.948-10.164-3.227 0-5.392 1.771-6.276 3.449h-0.093v-2.913h-6.364v21.364h6.627v-10.579c0-2.785 0.528-5.479 3.977-5.479 3.399 0 3.449 3.179 3.449 5.657v10.401h6.62z"></path>
<path d="M0.528 10.636h6.635v21.364h-6.635v-21.364z"></path>
<path d="M3.843 0c-2.121 0-3.843 1.721-3.843 3.843s1.721 3.879 3.843 3.879c2.121 0 3.843-1.757 3.843-3.879-0.001-2.121-1.723-3.843-3.843-3.843v0z"></path>
</symbol>

<symbol id="icon-twitter" viewBox="0 0 32 32">
<path d="M32 6.078c-1.19 0.522-2.458 0.868-3.78 1.036 1.36-0.812 2.398-2.088 2.886-3.626-1.268 0.756-2.668 1.29-4.16 1.588-1.204-1.282-2.92-2.076-4.792-2.076-3.632 0-6.556 2.948-6.556 6.562 0 0.52 0.044 1.020 0.152 1.496-5.454-0.266-10.28-2.88-13.522-6.862-0.566 0.982-0.898 2.106-0.898 3.316 0 2.272 1.17 4.286 2.914 5.452-1.054-0.020-2.088-0.326-2.964-0.808 0 0.020 0 0.046 0 0.072 0 3.188 2.274 5.836 5.256 6.446-0.534 0.146-1.116 0.216-1.72 0.216-0.42 0-0.844-0.024-1.242-0.112 0.85 2.598 3.262 4.508 6.13 4.57-2.232 1.746-5.066 2.798-8.134 2.798-0.538 0-1.054-0.024-1.57-0.090 2.906 1.874 6.35 2.944 10.064 2.944 12.072 0 18.672-10 18.672-18.668 0-0.29-0.010-0.57-0.024-0.848 1.302-0.924 2.396-2.078 3.288-3.406z"></path>
</symbol>
</defs>
</svg>
